<svg width="24" height="25" viewBox="0 0 24 25" fill="none" xmlns="http://www.w3.org/2000/svg">
<g clip-path="url(#clip0)">
<path fill-rule="evenodd" clip-rule="evenodd" d="M12 2.42969C6.486 2.42969 2 6.91569 2 12.4297C2 17.9437 6.486 22.4297 12 22.4297C17.514 22.4297 22 17.9437 22 12.4297C22 6.91569 17.514 2.42969 12 2.42969ZM12 4.09669C13.0948 4.09498 14.1791 4.30935 15.1909 4.72751C16.2027 5.14568 17.122 5.75942 17.8961 6.53355C18.6703 7.30768 19.284 8.22698 19.7022 9.23876C20.1203 10.2505 20.3347 11.3349 20.333 12.4297C20.3347 13.5245 20.1203 14.6088 19.7022 15.6206C19.284 16.6324 18.6703 17.5517 17.8961 18.3258C17.122 19.1 16.2027 19.7137 15.1909 20.1319C14.1791 20.55 13.0948 20.7644 12 20.7627C10.9052 20.7644 9.82085 20.55 8.80907 20.1319C7.7973 19.7137 6.87799 19.1 6.10386 18.3258C5.32973 17.5517 4.71599 16.6324 4.29783 15.6206C3.87966 14.6088 3.66529 13.5245 3.667 12.4297C3.66529 11.3349 3.87966 10.2505 4.29783 9.23876C4.71599 8.22698 5.32973 7.30768 6.10386 6.53355C6.87799 5.75942 7.7973 5.14568 8.80907 4.72751C9.82085 4.30935 10.9052 4.09498 12 4.09669ZM10.8 6.22669V14.3297H16.766V12.6627H12.466V6.22569H10.8V6.22669Z" fill="#ABABB0"/>
</g>
<defs>
<clipPath id="clip0">
<rect x="2" y="2.42969" width="20" height="20" fill="white"/>
</clipPath>
</defs>
</svg>
